<svg width="54" height="54" viewBox="0 0 54 54" fill="none" xmlns="http://www.w3.org/2000/svg">
<path d="M50.3089 31.653L50.3028 11.6966C50.3028 11.2193 50.113 10.7616 49.7763 10.4246L42.3463 2.98359C41.2113 1.84685 39.2683 2.65075 39.2683 4.25653V6.19004C39.2683 7.79477 37.3273 8.59867 36.1925 7.46398L29.4487 0.721365C29.1107 0.383416 28.6529 0.19397 28.1746 0.19397H16.2717C15.2761 0.19397 14.47 1.00094 14.47 1.99533V9.02882C14.47 10.0242 13.6629 10.8301 12.6683 10.8301H5.63371C4.63813 10.8301 3.83203 11.6371 3.83203 12.6315V31.652C3.83203 32.1303 4.02256 32.589 4.36056 32.927L13.9425 42.498C14.2805 42.8363 14.471 43.2949 14.471 43.7732V51.9854C14.471 52.9805 15.2781 53.7867 16.2727 53.7867H23.7088C24.7044 53.7867 25.5105 52.9798 25.5105 51.9854V44.9488C25.5105 43.9533 26.3176 43.1475 27.3122 43.1475H38.8238C39.3021 43.1475 39.761 42.957 40.099 42.6191L49.7824 32.928C50.1203 32.5901 50.3097 32.1313 50.3097 31.6541L50.3089 31.653ZM25.0977 33.9101V40.9331C25.0977 41.9287 24.2906 42.7348 23.296 42.7348H16.6834C15.6878 42.7348 14.8817 41.9279 14.8817 40.9331V13.0443C14.8817 12.0488 15.6889 11.2429 16.6834 11.2429H37.4667C38.4622 11.2429 39.2683 12.0499 39.2683 13.0443V30.3063C39.2683 31.3017 38.4612 32.1077 37.4667 32.1077H26.8994C25.9038 32.1077 25.0977 32.9147 25.0977 33.9091V33.9101Z" fill="#5130D8"/>
</svg>
